2.2Hz3min_grf.mot
version=1
nRows=27
nColumns 19
inDegrees=yes
endheader
time	1_ground_force_vx	1_ground_force_vy	1_ground_force_vz	1_ground_force_px	1_ground_force_py	1_ground_force_pz	1_ground_torque_x	1_ground_torque_y	1_ground_torque_z	2_ground_force_vx	2_ground_force_vy	2_ground_force_vz	2_ground_force_px	2_ground_force_py	2_ground_force_pz	2_ground_torque_x	2_ground_torque_y	2_ground_torque_z
            3.751500	          -13.027838	          704.180790	          -96.320719	           -0.293444	            0.006238	           -0.411306	            0.002389	           -0.129154	            0.017666	           -9.750829	          858.270151	          112.221483	           -0.279227	            0.005658	           -0.748826	            0.087706	           -7.719909	           -1.009402
            3.752000	          -12.566680	          698.589724	          -95.657976	           -0.293610	            0.006239	           -0.411604	            0.000716	           -0.039809	            0.005451	           -9.452758	          853.485775	          111.500366	           -0.279202	            0.005659	           -0.748947	            0.085692	           -7.737100	           -1.010784
            3.752500	          -11.739090	          694.080458	          -95.037373	           -0.293491	            0.006239	           -0.411612	           -0.001445	            0.085421	           -0.011696	           -9.245002	          847.779915	          110.916781	           -0.279185	            0.005659	           -0.748910	            0.084235	           -7.724448	           -1.010605
            3.753000	          -11.415871	          690.111984	          -94.413184	           -0.293376	            0.006238	           -0.411412	           -0.001764	            0.106666	           -0.014593	           -9.084260	          842.075103	          109.957790	           -0.279042	            0.005660	           -0.749051	            0.082829	           -7.677961	           -1.002585
            3.753500	          -11.137926	          686.142396	          -93.559606	           -0.293410	            0.006238	           -0.411301	            0.000897	           -0.055277	            0.007537	           -8.923457	          836.369911	          109.139576	           -0.279120	            0.005659	           -0.748924	            0.081525	           -7.641145	           -0.997108
            3.754000	          -10.905890	          682.533391	          -92.704383	           -0.293431	            0.006237	           -0.411245	            0.002581	           -0.161551	            0.021942	           -8.477566	          829.560768	          108.317315	           -0.279109	            0.005658	           -0.748685	            0.078625	           -7.693789	           -1.004593
            3.754500	          -10.628140	          678.384022	          -91.943282	           -0.293510	            0.006236	           -0.410906	            0.003140	           -0.200453	            0.027168	           -8.085878	          824.777521	          107.408431	           -0.278870	            0.005660	           -0.748925	            0.074727	           -7.622336	           -0.992635
            3.755000	          -10.441231	          674.593533	          -90.813575	           -0.293465	            0.006235	           -0.410760	            0.004627	           -0.298949	            0.040244	           -7.785833	          819.440829	          106.638407	           -0.278737	            0.005661	           -0.749041	            0.072460	           -7.626290	           -0.992452
            3.755500	          -10.072152	          669.904201	          -90.238459	           -0.293417	            0.006236	           -0.410919	            0.002735	           -0.181889	            0.024501	           -7.343163	          813.551614	          106.054064	           -0.278828	            0.005660	           -0.749032	            0.069517	           -7.701829	           -1.004005
            3.756000	           -9.793602	          664.491898	          -89.253493	           -0.293404	            0.006237	           -0.411221	            0.002456	           -0.166615	            0.022379	           -7.130858	          806.557545	          105.231246	           -0.279029	            0.005658	           -0.748743	            0.067575	           -7.643262	           -0.997213
            3.756500	           -9.149611	          659.982990	          -88.724139	           -0.293478	            0.006237	           -0.411201	            0.001665	           -0.120091	            0.016144	           -6.921170	          800.299704	          104.504898	           -0.278878	            0.005659	           -0.748738	            0.065984	           -7.629778	           -0.996313
            3.757000	           -8.734200	          655.112585	          -87.966486	           -0.293563	            0.006237	           -0.411136	            0.002241	           -0.168113	            0.022574	           -6.574919	          795.147215	          103.782446	           -0.278715	            0.005660	           -0.748900	            0.062683	           -7.580610	           -0.989420
            3.757500	           -8.409843	          651.142144	          -86.883746	           -0.293275	            0.006236	           -0.410946	            0.004125	           -0.319384	            0.042616	           -6.177146	          788.705682	          103.102296	           -0.278708	            0.005660	           -0.748783	            0.059447	           -7.590281	           -0.992227
            3.758000	           -8.223306	          646.270983	          -85.987953	           -0.293313	            0.006236	           -0.410928	            0.004471	           -0.351393	            0.046754	           -5.922746	          783.001666	          102.049410	           -0.278668	            0.005660	           -0.748767	            0.057314	           -7.577060	           -0.987526
            3.758500	           -7.670807	          641.941961	          -85.365894	           -0.293310	            0.006236	           -0.410827	            0.003184	           -0.266469	            0.035435	           -5.295396	          777.850192	          101.326824	           -0.278518	            0.005661	           -0.748936	            0.051486	           -7.562879	           -0.985180
            3.759000	           -7.621586	          636.529932	          -84.426211	           -0.293422	            0.006237	           -0.411115	            0.002598	           -0.216942	            0.028774	           -5.221647	          770.303132	          100.502094	           -0.278550	            0.005661	           -0.748911	            0.051385	           -7.580306	           -0.989009
            3.759500	           -7.297211	          631.838503	          -83.392430	           -0.293368	            0.006236	           -0.411014	            0.002489	           -0.215477	            0.028439	           -4.779038	          764.414419	           99.776960	           -0.278547	            0.005661	           -0.748853	            0.046995	           -7.516904	           -0.981161
            3.760000	           -6.561471	          628.230579	          -82.767720	           -0.293269	            0.006234	           -0.410523	            0.002091	           -0.200231	            0.026380	           -4.524515	          758.709398	           99.005642	           -0.278490	            0.005661	           -0.748960	            0.045101	           -7.562918	           -0.986902
            3.760500	           -6.374430	          623.719149	          -81.641104	           -0.293181	            0.006235	           -0.410724	            0.003679	           -0.359973	            0.047118	           -4.358292	          751.530122	           98.416820	           -0.278429	            0.005661	           -0.748803	            0.043742	           -7.542672	           -0.987753
            3.761000	           -6.097770	          619.932019	          -81.291172	           -0.293016	            0.006233	           -0.410257	            0.003807	           -0.387058	            0.050755	           -4.193644	          744.721135	           97.266174	           -0.278578	            0.005660	           -0.748684	            0.042433	           -7.535406	           -0.984181
            3.761500	           -6.093596	          614.518483	          -80.030396	           -0.293191	            0.006234	           -0.410404	            0.004646	           -0.468501	            0.061014	           -3.896135	          740.120123	           96.780347	           -0.278278	            0.005662	           -0.748870	            0.039681	           -7.537949	           -0.985685
            3.762000	           -5.540231	          608.566178	          -79.186002	           -0.293284	            0.006235	           -0.410754	            0.003403	           -0.373798	            0.048638	           -3.453609	          734.232079	           95.867516	           -0.278213	            0.005662	           -0.748937	            0.035448	           -7.536157	           -0.983984
            3.762500	           -5.080181	          604.058218	          -78.885469	           -0.293160	            0.006235	           -0.410685	            0.001620	           -0.192583	            0.025150	           -3.524273	          727.788353	           95.328342	           -0.278336	            0.005662	           -0.748934	            0.036349	           -7.506434	           -0.983220
            3.763000	           -4.893204	          598.645701	          -77.854439	           -0.293293	            0.006236	           -0.411013	            0.002083	           -0.254892	            0.033149	           -3.032321	          721.164585	           94.225150	           -0.278243	            0.005662	           -0.748840	            0.031485	           -7.487905	           -0.978347
            3.763500	           -4.661006	          595.396895	          -76.905935	           -0.293170	            0.006234	           -0.410439	            0.002368	           -0.302458	            0.039068	           -2.445757	          714.354945	           93.684382	           -0.278334	            0.005661	           -0.748828	            0.025618	           -7.482369	           -0.981279
            3.764000	           -4.245056	          589.444245	          -76.015349	           -0.293161	            0.006236	           -0.410827	            0.002926	           -0.406328	            0.052401	           -2.377866	          708.464209	           93.147135	           -0.278269	            0.005661	           -0.748812	            0.025471	           -7.588933	           -0.997774
            3.764500	           -4.013035	          585.294670	          -75.208297	           -0.293191	            0.006233	           -0.410235	            0.003101	           -0.452271	            0.058115	           -2.263330	          702.575315	           92.140572	           -0.278243	            0.005662	           -0.748985	            0.024198	           -7.511434	           -0.985101
